#!OML:ASF F:\VICON\USERDATA\INSTALL\rory3\rory3.ASF
:FULLY-SPECIFIED
:DEGREES
212
root 1.31554 15.5172 -15.384 33.2279 -2.40316 -1.03148
lowerback 26.2304 0.320177 1.34625
upperback 1.74483 1.00238 1.50922
thorax -12.7215 0.428034 0.580465
lowerneck -29.6236 -4.69016 -7.40175
upperneck -2.79535 -4.28882 9.19042
head 3.95045 -1.47008 3.66979
rclavicle 5.1684e-015 5.1684e-015
rhumerus -16.1592 -2.55384 -84.9293
rradius 62.1689
rwrist -13.863
rhand -18.9328 18.1605
rfingers 7.12502
rthumb 7.37003 -11.6911
lclavicle 5.1684e-015 5.1684e-015
lhumerus -13.7212 6.20464 89.229
lradius 59.6815
lwrist 5.01275
lhand -22.2765 17.6658
lfingers 7.12502
lthumb 4.14175 47.6053
rfemur -68.6765 0.829992 20.1169
rtibia 70.2585
rfoot -26.2569 -11.3698
rtoes -7.6835
lfemur -68.4644 1.69279 -20.2897
ltibia 69.6675
lfoot -30.2139 4.58472
ltoes -5.15063
213
root 1.3082 15.4374 -15.2939 32.89 -2.45571 -1.25702
lowerback 26.1667 0.411166 1.44862
upperback 1.76786 1.15073 1.53664
thorax -12.6591 0.490354 0.499142
lowerneck -29.7405 -4.72853 -7.36102
upperneck -3.13178 -4.33289 9.31559
head 3.86597 -1.48367 3.70051
rclavicle 8.34896e-015 2.26615e-014
rhumerus -16.531 -2.49265 -84.3944
rradius 64.7704
rwrist -14.5717
rhand -18.9604 17.3208
rfingers 7.12502
rthumb 7.34334 -12.5318
lclavicle 8.34896e-015 2.26615e-014
lhumerus -13.5199 5.83132 89.2197
lradius 63.2258
lwrist 6.63821
lhand -21.9114 17.2551
lfingers 7.12502
lthumb 4.49436 47.1874
rfemur -68.492 1.05637 20.4382
rtibia 71.2565
rfoot -26.4652 -12.3785
rtoes -11.4812
lfemur -68.2133 2.10558 -20.1683
ltibia 70.6973
lfoot -30.8969 4.5537
ltoes -6.56689
214
root 1.29859 15.3902 -15.195 32.5612 -2.36484 -1.36999
lowerback 26.0261 0.453442 1.56649
upperback 1.64339 1.24338 1.56274
thorax -12.7262 0.526219 0.428597
lowerneck -29.5615 -4.77379 -7.26629
upperneck -3.47385 -4.4216 9.41133
head 3.74498 -1.52975 3.70754
rclavicle 1.59028e-015 -7.15625e-015
rhumerus -17.7001 -2.34278 -83.692
rradius 68.2745
rwrist -15.8215
rhand -19.0753 16.4252
rfingers 7.12502
rthumb 7.23246 -13.4312
lclavicle 1.59028e-015 -7.15625e-015
lhumerus -13.4358 5.16636 89.0715
lradius 67.1814
lwrist 7.48268
lhand -22.3771 17.1628
lfingers 7.12502
lthumb 4.04466 47.1041
rfemur -68.0504 1.07816 20.7024
rtibia 72.1022
rfoot -26.9988 -13.1032
rtoes -13.3921
lfemur -67.8062 2.28588 -20.0433
ltibia 71.5016
lfoot -31.5607 4.53755
ltoes -7.49191
215
root 1.28804 15.3365 -15.0904 32.1524 -2.39344 -1.29701
lowerback 25.7269 0.521561 1.43039
upperback 1.60854 1.28539 1.55546
thorax -12.6069 0.554167 0.485414
lowerneck -29.3357 -4.8361 -7.21879
upperneck -3.80289 -4.51839 9.47764
head 3.62266 -1.58324 3.71169
rclavicle 7.95139e-015 1.51076e-014
rhumerus -18.7731 -2.1865 -82.8745
rradius 72.1626
rwrist -17.7975
rhand -18.3887 16.5667
rfingers 7.12502
rthumb 7.89522 -13.2659
lclavicle 7.95139e-015 1.51076e-014
lhumerus -13.1413 4.47995 88.7651
lradius 71.246
lwrist 7.54069
lhand -23.1101 16.6584
lfingers 7.12502
lthumb 3.33673 46.612
rfemur -67.5309 1.14939 20.6744
rtibia 72.8896
rfoot -27.5667 -13.7809
rtoes -14.0081
lfemur -67.3063 2.4348 -20.1424
ltibia 72.2394
lfoot -32.1274 4.5298
ltoes -8.1746
216
root 1.27089 15.2883 -14.9824 31.5946 -2.19145 -1.34144
lowerback 25.3973 0.579478 1.44298
upperback 1.72811 1.36614 1.65626
thorax -12.2918 0.596273 0.565762
lowerneck -29.5991 -4.89513 -7.2698
upperneck -3.67198 -4.57095 9.54628
head 3.70467 -1.59479 3.73531
rclavicle -6.75868e-015 -1.74931e-014
rhumerus -19.2431 -2.28436 -81.828
rradius 76.0494
rwrist -19.6068
rhand -16.2076 16.8434
rfingers 7.12502
rthumb 9.99988 -12.899
lclavicle -6.75868e-015 -1.74931e-014
lhumerus -12.3731 3.63203 88.3377
lradius 75.2902
lwrist 7.98131
lhand -23.4222 15.8758
lfingers 7.12502
lthumb 3.03535 45.834
rfemur -66.7042 1.25985 20.8373
rtibia 73.5355
rfoot -28.1695 -14.3384
rtoes -13.2299
lfemur -66.5858 2.56918 -19.9785
ltibia 72.8873
lfoot -32.5196 4.49542
ltoes -8.7735
